<svg xmlns="http://www.w3.org/2000/svg" width="200" height="200" viewBox="0 0 200 200">
  <g id="バス停_" data-name="バス停２" transform="translate(-56 -104)">
    <g id="楕円形_1" data-name="楕円形 1" transform="translate(56 104)" fill="#fff" stroke="#707070" stroke-width="1">
      <circle cx="100" cy="100" r="100" stroke="none"/>
      <circle cx="100" cy="100" r="99.5" fill="none"/>
    </g>
    <g id="楕円形_2" data-name="楕円形 2" transform="translate(66 114)" fill="#99bae6" stroke="#99bae6" stroke-width="1">
      <circle cx="90" cy="90" r="90" stroke="none"/>
      <circle cx="90" cy="90" r="89.5" fill="none"/>
    </g>
    <g id="グループ_1" data-name="グループ 1">
      <g id="長方形_1" data-name="長方形 1" transform="translate(92 164)" fill="#494646" stroke="#494646" stroke-width="1">
        <path d="M10,0H115a10,10,0,0,1,10,10V67a0,0,0,0,1,0,0H0a0,0,0,0,1,0,0V10A10,10,0,0,1,10,0Z" stroke="none"/>
        <path d="M10,.5H115a9.5,9.5,0,0,1,9.5,9.5V66a.5.5,0,0,1-.5.5H1A.5.5,0,0,1,.5,66V10A9.5,9.5,0,0,1,10,.5Z" fill="none"/>
      </g>
      <g id="楕円形_3" data-name="楕円形 3" transform="translate(107 215)" fill="#99bae6" stroke="#99bae6" stroke-width="1">
        <ellipse cx="15.5" cy="15" rx="15.5" ry="15" stroke="none"/>
        <ellipse cx="15.5" cy="15" rx="15" ry="14.5" fill="none"/>
      </g>
      <g id="楕円形_5" data-name="楕円形 5" transform="translate(109 217)" fill="#494646" stroke="#494646" stroke-width="1">
        <circle cx="13.5" cy="13.5" r="13.5" stroke="none"/>
        <circle cx="13.5" cy="13.5" r="13" fill="none"/>
      </g>
      <g id="楕円形_4" data-name="楕円形 4" transform="translate(175 216)" fill="#99bae6" stroke="#99bae6" stroke-width="1">
        <ellipse cx="15.5" cy="15" rx="15.5" ry="15" stroke="none"/>
        <ellipse cx="15.5" cy="15" rx="15" ry="14.5" fill="none"/>
      </g>
      <g id="楕円形_6" data-name="楕円形 6" transform="translate(177 218)" fill="#494646" stroke="#494646" stroke-width="1">
        <circle cx="13.5" cy="13.5" r="13.5" stroke="none"/>
        <circle cx="13.5" cy="13.5" r="13" fill="none"/>
      </g>
      <g id="長方形_2" data-name="長方形 2" transform="translate(94 174)" fill="#99bae6" stroke="#99bae6" stroke-width="1">
        <path d="M5,0H29a0,0,0,0,1,0,0V30a0,0,0,0,1,0,0H0a0,0,0,0,1,0,0V5A5,5,0,0,1,5,0Z" stroke="none"/>
        <path d="M5,.5H28a.5.5,0,0,1,.5.5V29a.5.5,0,0,1-.5.5H1A.5.5,0,0,1,.5,29V5A4.5,4.5,0,0,1,5,.5Z" fill="none"/>
      </g>
      <g id="長方形_3" data-name="長方形 3" transform="translate(129 178)" fill="#99bae6" stroke="#99bae6" stroke-width="1">
        <rect width="30" height="23" stroke="none"/>
        <rect x="0.5" y="0.5" width="29" height="22" fill="none"/>
      </g>
      <g id="長方形_4" data-name="長方形 4" transform="translate(165 178)" fill="#99bae6" stroke="#99bae6" stroke-width="1">
        <rect width="30" height="23" stroke="none"/>
        <rect x="0.5" y="0.5" width="29" height="22" fill="none"/>
      </g>
      <g id="長方形_5" data-name="長方形 5" transform="translate(201 174)" fill="#99bae6" stroke="#99bae6" stroke-width="1">
        <path d="M0,0H5a5,5,0,0,1,5,5V30a0,0,0,0,1,0,0H0a0,0,0,0,1,0,0V0A0,0,0,0,1,0,0Z" stroke="none"/>
        <path d="M1,.5H5A4.5,4.5,0,0,1,9.5,5V29a.5.5,0,0,1-.5.5H1A.5.5,0,0,1,.5,29V1A.5.5,0,0,1,1,.5Z" fill="none"/>
      </g>
    </g>
  </g>
</svg>
