<svg xmlns="http://www.w3.org/2000/svg" width="100" height="229" viewBox="0 0 100 229">
  <g id="バス停_" data-name="バス停１" transform="translate(-353 -105)">
    <g id="グループ_2" data-name="グループ 2" transform="translate(38 1)">
      <g id="楕円形_7" data-name="楕円形 7" transform="translate(315 104)" fill="#fff" stroke="#4f3c3c" stroke-width="3">
        <circle cx="50" cy="50" r="50" stroke="none"/>
        <circle cx="50" cy="50" r="48.5" fill="none"/>
      </g>
      <path id="パス_2" data-name="パス 2" d="M317.888,183.978c4.48-.316,93.342,0,93.342,0v23.449c0,1.533-93.342,0-93.342,0S313.408,184.293,317.888,183.978Z" transform="translate(1.436 -41.973)" fill="#4f3c3c" stroke="#4f3c3c" stroke-linecap="round" stroke-linejoin="round" stroke-width="1"/>
    </g>
    <line id="線_1" data-name="線 1" y2="19" transform="translate(396.5 203.5)" fill="none" stroke="#4f3c3c" stroke-width="3"/>
    <line id="線_3" data-name="線 3" y2="19" transform="translate(396.5 298)" fill="none" stroke="#4f3c3c" stroke-width="3"/>
    <line id="線_2" data-name="線 2" y2="18" transform="translate(410.5 204)" fill="none" stroke="#4f3c3c" stroke-width="3"/>
    <line id="線_4" data-name="線 4" y2="18" transform="translate(410.5 298.5)" fill="none" stroke="#4f3c3c" stroke-width="3"/>
    <g id="長方形_6" data-name="長方形 6" transform="translate(373 222)" fill="#fff" stroke="#4f3c3c" stroke-width="3">
      <rect width="60" height="76" stroke="none"/>
      <rect x="1.5" y="1.5" width="57" height="73" fill="none"/>
    </g>
    <g id="長方形_7" data-name="長方形 7" transform="translate(362 313)" fill="#fff" stroke="#4f3c3c" stroke-width="3">
      <rect width="83" height="21" stroke="none"/>
      <rect x="1.5" y="1.5" width="80" height="18" fill="none"/>
    </g>
  </g>
</svg>
